<svg xmlns="http://www.w3.org/2000/svg" xmlns:xlink="http://www.w3.org/1999/xlink" preserveAspectRatio="xMidYMid" width="62" height="64" viewBox="0 0 62 64">
  <defs>
    <style>
      .cls-1 {
        fill: #f9f9f9;
        stroke: #2195b1;
        stroke-linejoin: round;
        stroke-width: 1px;
        filter: url(#filter-chain-1);
        fill-rule: evenodd;
      }
    </style>

    <filter id="filter-chain-1" filterUnits="userSpaceOnUse">
      <feOffset dy="3" in="SourceAlpha"/>
      <feGaussianBlur stdDeviation="2.236" result="dropBlur"/>
      <feFlood flood-opacity="0.15"/>
      <feComposite operator="in" in2="dropBlur" result="dropShadowComp"/>
      <feComposite in="SourceGraphic" result="shadowed"/>
      <feFlood flood-color="#e4e4e4" flood-opacity="0.25"/>
      <feComposite operator="in" in2="SourceGraphic"/>
      <feBlend mode="multiply" in2="shadowed" result="solidFill"/>
    </filter>
  </defs>
  <g style="fill: #f9f9f9; filter: url(#filter-chain-1)">
    <path d="M55.000,34.000 L51.000,34.000 C49.894,34.000 49.000,33.106 49.000,32.000 C49.000,30.894 49.894,30.000 51.000,30.000 L55.000,30.000 C56.106,30.000 57.000,30.894 57.000,32.000 C57.000,33.106 56.106,34.000 55.000,34.000 ZM46.555,19.270 C45.774,20.051 44.508,20.051 43.727,19.270 C42.945,18.488 42.945,17.223 43.727,16.441 L46.555,13.613 C47.336,12.832 48.602,12.832 49.383,13.613 C50.164,14.394 50.164,15.660 49.383,16.441 L46.555,19.270 ZM31.000,46.000 C23.281,46.000 17.000,39.719 17.000,32.000 C17.000,24.281 23.281,18.000 31.000,18.000 C38.719,18.000 45.000,24.281 45.000,32.000 C45.000,39.719 38.719,46.000 31.000,46.000 ZM31.000,14.000 C29.894,14.000 29.000,13.106 29.000,12.000 L29.000,8.000 C29.000,6.894 29.894,6.000 31.000,6.000 C32.106,6.000 33.000,6.894 33.000,8.000 L33.000,12.000 C33.000,13.106 32.106,14.000 31.000,14.000 ZM15.442,19.272 L12.613,16.443 C11.832,15.662 11.832,14.396 12.613,13.615 C13.394,12.834 14.660,12.834 15.442,13.615 L18.270,16.443 C19.051,17.224 19.051,18.490 18.270,19.272 C17.488,20.053 16.223,20.053 15.442,19.272 ZM13.000,32.000 C13.000,33.106 12.106,34.000 11.000,34.000 L7.000,34.000 C5.894,34.000 5.000,33.106 5.000,32.000 C5.000,30.894 5.894,30.000 7.000,30.000 L11.000,30.000 C12.106,30.000 13.000,30.894 13.000,32.000 ZM15.445,44.730 C16.227,43.945 17.492,43.949 18.274,44.730 C19.055,45.512 19.055,46.773 18.274,47.558 L15.445,50.387 C14.664,51.168 13.398,51.168 12.617,50.387 C11.836,49.606 11.836,48.340 12.617,47.558 L15.445,44.730 ZM31.000,50.000 C32.106,50.000 33.000,50.894 33.000,52.000 L33.000,56.000 C33.000,57.106 32.106,58.000 31.000,58.000 C29.894,58.000 29.000,57.106 29.000,56.000 L29.000,52.000 C29.000,50.894 29.894,50.000 31.000,50.000 ZM46.559,44.726 L49.387,47.555 C50.168,48.336 50.168,49.602 49.387,50.383 C48.606,51.164 47.340,51.164 46.559,50.383 L43.730,47.555 C42.945,46.773 42.949,45.508 43.730,44.726 C44.512,43.945 45.774,43.945 46.559,44.726 Z" id="path-1" style="stroke: inherit; filter: none; fill: inherit" class="cls-1"/>
  </g>
  <use xlink:href="#path-1" style="stroke: #2195b1; filter: none; fill: none"/>
</svg>
