<svg xmlns="http://www.w3.org/2000/svg" xmlns:xlink="http://www.w3.org/1999/xlink" preserveAspectRatio="xMidYMid" width="74" height="76" viewBox="0 0 74 76">
  <defs>
    <style>
      .cls-1 {
        fill: #f9f9f9;
        stroke: #2195b1;
        stroke-linejoin: round;
        stroke-width: 1px;
        filter: url(#filter-chain-1);
        fill-rule: evenodd;
      }
    </style>

    <filter id="filter-chain-1" filterUnits="userSpaceOnUse">
      <feOffset dy="3" in="SourceAlpha"/>
      <feGaussianBlur stdDeviation="2.236" result="dropBlur"/>
      <feFlood flood-opacity="0.15"/>
      <feComposite operator="in" in2="dropBlur" result="dropShadowComp"/>
      <feComposite in="SourceGraphic" result="shadowed"/>
      <feFlood flood-color="#e4e4e4" flood-opacity="0.25"/>
      <feComposite operator="in" in2="SourceGraphic"/>
      <feBlend mode="multiply" in2="shadowed" result="solidFill"/>
    </filter>
  </defs>
  <g style="fill: #f9f9f9; filter: url(#filter-chain-1)">
    <path d="M55.000,66.000 C53.289,66.000 51.613,65.688 50.035,65.082 C46.418,68.238 41.816,70.000 37.000,70.000 C32.188,70.000 27.582,68.238 23.965,65.082 C22.387,65.688 20.711,66.000 19.000,66.000 C11.281,66.000 5.000,59.719 5.000,52.000 C5.000,44.476 10.984,38.359 18.438,38.055 C17.543,36.219 17.000,34.180 17.000,32.000 C17.000,24.281 23.281,18.000 31.000,18.000 C38.617,18.000 44.808,24.125 44.969,31.703 C48.137,33.098 50.930,35.281 53.027,38.141 C53.680,38.047 54.336,38.000 55.000,38.000 C62.719,38.000 69.000,44.281 69.000,52.000 C69.000,59.719 62.719,66.000 55.000,66.000 ZM31.000,22.000 C25.476,22.000 21.000,26.476 21.000,32.000 C21.000,33.692 21.461,35.262 22.203,36.656 C25.938,32.476 31.258,30.000 37.000,30.000 C38.308,30.000 39.586,30.156 40.840,30.406 C40.070,25.644 35.976,22.000 31.000,22.000 ZM55.000,34.000 L51.000,34.000 C49.894,34.000 49.000,33.106 49.000,32.000 C49.000,30.894 49.894,30.000 51.000,30.000 L55.000,30.000 C56.106,30.000 57.000,30.894 57.000,32.000 C57.000,33.106 56.106,34.000 55.000,34.000 ZM46.555,19.270 C45.774,20.051 44.508,20.051 43.726,19.270 C42.945,18.488 42.945,17.223 43.726,16.442 L46.555,13.613 C47.336,12.832 48.602,12.832 49.383,13.613 C50.164,14.394 50.164,15.660 49.383,16.442 L46.555,19.270 ZM31.000,14.000 C29.894,14.000 29.000,13.106 29.000,12.000 L29.000,8.000 C29.000,6.894 29.894,6.000 31.000,6.000 C32.106,6.000 33.000,6.894 33.000,8.000 L33.000,12.000 C33.000,13.106 32.106,14.000 31.000,14.000 ZM15.442,19.272 L12.613,16.443 C11.832,15.662 11.832,14.396 12.613,13.615 C13.394,12.834 14.660,12.834 15.442,13.615 L18.270,16.443 C19.051,17.225 19.051,18.490 18.270,19.272 C17.488,20.053 16.223,20.053 15.442,19.272 ZM13.000,32.000 C13.000,33.106 12.106,34.000 11.000,34.000 L7.000,34.000 C5.894,34.000 5.000,33.106 5.000,32.000 C5.000,30.894 5.894,30.000 7.000,30.000 L11.000,30.000 C12.106,30.000 13.000,30.894 13.000,32.000 Z" id="path-1" style="stroke: inherit; filter: none; fill: inherit" class="cls-1"/>
  </g>
  <use xlink:href="#path-1" style="stroke: #2195b1; filter: none; fill: none"/>
</svg>
